<svg xmlns="http://www.w3.org/2000/svg" xmlns:xlink="http://www.w3.org/1999/xlink" viewBox="0 0 346.19 61.31" shape-rendering="geometricPrecision"><style>#H{animation:eahQiFBurO29_ts__ts 3000ms linear infinite normal forwards}#I{animation:eahQiFBurO211_ts__ts 3000ms linear infinite normal forwards}#J{animation:eahQiFBurO240_to__to 3000ms linear infinite normal forwards}@keyframes eahQiFBurO29_ts__ts{0%{transform:translate(200.86499px,33.085003px) scale(1.06,1.06)}50%{transform:translate(200.86499px,33.085003px) scale(1,1)}100%{transform:translate(200.86499px,33.085003px) scale(1.06,1.06)}} @keyframes eahQiFBurO211_ts__ts{0%{transform:translate(200.86528px,11.24px) scale(1,1)}50%{transform:translate(200.86528px,11.24px) scale(1.01,1.01)}100%{transform:translate(200.86528px,11.24px) scale(1,1)}} @keyframes eahQiFBurO240_to__to{0%{transform:translate(30.664647px,30.65925px)}50%{transform:translate(30.660015px,33.089597px)}100%{transform:translate(30.664647px,30.65925px)}} @keyframes eahQiFBurO29_ts__ts{0%{transform:translate(200.86499px,33.085003px) scale(1.06,1.06)}50%{transform:translate(200.86499px,33.085003px) scale(1,1)}100%{transform:translate(200.86499px,33.085003px) scale(1.06,1.06)}} @keyframes eahQiFBurO211_ts__ts{0%{transform:translate(200.86528px,11.24px) scale(1,1)}50%{transform:translate(200.86528px,11.24px) scale(1.01,1.01)}100%{transform:translate(200.86528px,11.24px) scale(1,1)}} @keyframes eahQiFBurO240_to__to{0%{transform:translate(30.664647px,30.65925px)}50%{transform:translate(30.660015px,33.089597px)}100%{transform:translate(30.664647px,30.65925px)}}</style><defs><path id="A" d="M78.2 6.74c.62.34 1.1.83 1.45 1.47.34.64.52 1.4.52 2.27v1.04c0 .92-.17 1.69-.52 2.34-.35.64-.83 1.13-1.45 1.47s-1.35.51-2.17.51-1.57-.17-2.19-.5a3.46 3.46 0 0 1-1.45-1.46c-.35-.64-.52-1.42-.52-2.34v-1.02c0-.86.17-1.61.52-2.25s.83-1.14 1.46-1.49c.62-.36 1.35-.53 2.19-.53s1.55.17 2.17.52zm-3.23 1.61c-.28.23-.49.53-.63.92-.14.38-.21.81-.21 1.28v.96a3.89 3.89 0 0 0 .2 1.27c.13.38.34.69.62.92s.64.35 1.07.35.79-.11 1.06-.34.48-.53.61-.92a3.95 3.95 0 0 0 .2-1.28v-.96c0-.47-.07-.9-.21-1.28s-.34-.69-.62-.91c-.28-.23-.62-.34-1.04-.34s-.77.11-1.05.34z"/><path id="B" d="M117.52 9.71h-.12l-3.71 5.96h-2.07V6.39h2.14v5.96h.12l3.7-5.96h2.08v9.28h-2.14V9.71z"/><path id="C" d="M121.52 10.41c0-.85.17-1.59.5-2.22a3.58 3.58 0 0 1 1.4-1.46c.6-.34 1.32-.52 2.14-.52s1.47.15 2.02.44.98.69 1.27 1.17a3.24 3.24 0 0 1 .46 1.62h-2.08a1.66 1.66 0 0 0-.21-.64 1.32 1.32 0 0 0-.51-.54c-.23-.14-.52-.21-.89-.21-.59 0-1.04.21-1.36.64s-.47 1.01-.47 1.74v1.12c0 .75.16 1.34.49 1.78.33.43.78.65 1.35.65.36 0 .66-.06.89-.17a1.19 1.19 0 0 0 .52-.47c.12-.2.2-.43.23-.68h2.08c-.01.59-.16 1.12-.44 1.6s-.71.86-1.26 1.14c-.56.28-1.25.42-2.07.42s-1.56-.17-2.16-.52-1.06-.84-1.39-1.47-.49-1.39-.49-2.27V10.4z"/><path id="D" d="M184.04 15.67h-2.08V6.39h2.56l2.54 5.71h.1l2.55-5.71h2.53v9.28h-2.1V9.85h-.1l-2.23 4.8h-1.43l-2.24-4.8h-.1v5.82z"/><path id="E" d="M201.79 15.61c-.34-.12-.63-.3-.88-.52s-.44-.5-.57-.83h-.11v4.49h-2.26V6.38h2.22v1.48h.12c.09-.25.22-.47.38-.67.17-.2.36-.36.59-.5s.49-.24.77-.31a3.7 3.7 0 0 1 .9-.11c.71 0 1.31.17 1.82.49.5.33.89.8 1.16 1.42s.4 1.35.4 2.22v1.26c0 .86-.14 1.59-.41 2.21a3.2 3.2 0 0 1-1.17 1.43c-.51.33-1.12.5-1.83.5a3.29 3.29 0 0 1-1.12-.18zm1.38-1.95c.28-.2.49-.49.64-.86.15-.38.22-.83.22-1.36v-.8c0-.54-.07-.99-.22-1.37s-.36-.66-.65-.86c-.28-.2-.63-.3-1.03-.3s-.72.1-1.01.29-.5.47-.66.82c-.15.36-.23.78-.23 1.27v1.21c0 .45.08.85.24 1.19a1.84 1.84 0 0 0 .68.8c.29.19.63.28 1.01.28s.74-.1 1.01-.3z"/><path id="F" d="M208.52 15.05c-.55-.51-.83-1.2-.83-2.07s.28-1.5.83-2.01c.55-.5 1.35-.76 2.41-.76h2.21v-.83c0-.47-.14-.81-.41-1.04s-.64-.34-1.1-.34c-.31 0-.56.04-.77.13a1.06 1.06 0 0 0-.47.35c-.11.15-.19.32-.23.51h-2.13a3.24 3.24 0 0 1 .27-1.07c.15-.33.37-.62.66-.87s.66-.45 1.11-.59.99-.21 1.61-.21c.68 0 1.3.1 1.86.31.56.2 1.01.54 1.34 1.01s.5 1.09.5 1.88v6.24h-2.13v-1.18h-.1c-.12.23-.29.44-.5.64s-.48.36-.8.49-.71.19-1.16.19c-.88 0-1.6-.25-2.16-.76zm3.76-1.14c.26-.13.47-.32.62-.55.16-.23.23-.5.23-.8v-.96h-1.74c-.5 0-.87.12-1.11.35a1.16 1.16 0 0 0-.36.88c0 .44.15.76.45.97a1.74 1.74 0 0 0 1.03.31 1.92 1.92 0 0 0 .87-.2z"/><path id="G" d="M232.38 6.74c.62.34 1.1.83 1.45 1.47s.52 1.4.52 2.27v1.04c0 .92-.17 1.69-.52 2.34a3.54 3.54 0 0 1-1.45 1.47c-.62.34-1.35.51-2.17.51s-1.57-.17-2.19-.5a3.46 3.46 0 0 1-1.45-1.46c-.35-.64-.52-1.42-.52-2.34v-1.02c0-.86.17-1.61.52-2.25s.83-1.14 1.46-1.49c.62-.36 1.35-.53 2.19-.53s1.55.17 2.17.52zm-3.23 1.61c-.28.23-.49.53-.63.92s-.21.81-.21 1.28v.96a3.89 3.89 0 0 0 .2 1.27c.13.38.34.69.62.92s.64.35 1.07.35.79-.11 1.06-.34.48-.53.61-.92a3.95 3.95 0 0 0 .2-1.28v-.96c0-.47-.07-.9-.21-1.28s-.34-.69-.62-.91-.62-.34-1.04-.34-.77.11-1.05.34z"/></defs><g id="H" transform="matrix(1.06 0 0 1.06 200.86499 33.085003)"><path d="M149.45 36.08c.89 0 1.57.63 1.57 1.54s-.68 1.51-1.57 1.51-1.54-.62-1.54-1.51.68-1.54 1.54-1.54zm-8.52-9.96h2.12v2.58h2.31v1.7h-2.31v5.48c0 1.12.42 1.44 1.58 1.44l.85-.04v1.66c-.46.06-.93.09-1.39.09-2.51 0-3.19-.9-3.19-2.97v-5.65h-1.57v-1.7h1.6v-2.58h0zm13.14 2.5h2.13v1.68h.11c.23-.75.93-1.84 2.81-1.84 1.56 0 2.53.83 2.85 1.93h.09c.38-.98 1.38-1.93 3.13-1.93 2.11 0 3.36 1.2 3.36 3.24v7.24h-2.16v-6.59c0-1.31-.72-2.07-1.96-2.07-1.16 0-2.06.89-2.06 2.26v6.41h-2.11v-6.53c0-1.34-.8-2.13-1.99-2.13s-2.03.86-2.03 2.24v6.43h-2.17V28.62zm17.22 5.86v-1.4c0-2.93 1.91-4.64 4.43-4.64s4.41 1.8 4.41 4.64v1.21h-6.7v.51c0 1.48.88 2.58 2.4 2.58 1.13 0 1.91-.54 2.06-1.18h2.12c-.13 1.19-1.39 2.92-4.17 2.92s-4.56-1.73-4.56-4.64h0zm6.73-1.6v-.14c0-1.55-.91-2.59-2.29-2.59s-2.29 1.04-2.29 2.59v.14h4.58zm3.21 9.1l4.81-17.07h1.98l-4.8 17.07h-1.99zm12.05-13.54c2.27 0 3.82 1.13 3.82 2.96h-1.95c-.06-.67-.67-1.38-1.92-1.38-1.1 0-1.86.52-1.86 1.41 0 1.14 1.46 1.3 2.61 1.49 1.92.33 3.41.95 3.41 2.9 0 2.08-1.65 3.29-4.27 3.29-2.45 0-4.02-1.1-4.02-2.95h2.11c.12.83.71 1.37 2.02 1.37 1.46 0 2.05-.65 2.05-1.46 0-1.07-1.18-1.25-2.57-1.51-1.88-.39-3.42-.92-3.42-2.94 0-2.25 1.89-3.18 3.99-3.18h0zm7.43-2.33h2.12v2.58h2.31v1.7h-2.31v5.48c0 1.12.42 1.44 1.58 1.44l.85-.04v1.66c-.46.06-.93.09-1.39.09-2.51 0-3.19-.9-3.19-2.97V30.4h-1.57v-1.7h1.6v-2.58h0zm6.57 9.82c0-1.83 1.27-3.06 3.65-3.06h2.61v-.97c0-1.18-.75-1.74-1.94-1.74s-1.7.49-1.87 1.17h-2.06c.13-1.73 1.43-2.89 3.99-2.89 2.21 0 4.03.92 4.03 3.49v6.99h-2.06v-1.34h-.1c-.46.79-1.36 1.49-2.88 1.49-2 0-3.38-1.23-3.38-3.15h.01zm6.26-.48v-1.11h-2.27c-1.26 0-1.82.63-1.82 1.49 0 1.07.9 1.58 1.88 1.58 1.23 0 2.21-.84 2.21-1.96zm7.61 1.93h-.12v1.55h-2.11V24.9h2.17v5.35h.12c.32-1.07 1.52-1.78 3.01-1.78 2.41 0 3.9 1.7 3.9 4.5v1.59c0 2.8-1.5 4.51-3.95 4.51-1.45 0-2.58-.63-3.02-1.7h0zm4.76-3.08v-1c0-1.93-.87-3.05-2.37-3.05s-2.44 1.1-2.44 2.86v1.49c0 1.58 1.03 2.7 2.48 2.7s2.33-1.1 2.33-3.01h0zm11.43-4.12h.11v-5.26h2.17v14.03h-2.11V37.3h-.11c-.31 1.04-1.55 1.79-3.06 1.79-2.37 0-3.92-1.69-3.92-4.41v-1.77c0-2.72 1.57-4.41 3.95-4.41 1.46 0 2.57.64 2.97 1.69h0zm-4.71 3.03v1.13c0 1.88.91 2.96 2.39 2.96s2.42-1.06 2.42-2.82v-1.56c0-1.59-1.04-2.66-2.47-2.66s-2.34 1.07-2.34 2.95zm11.57-9.02c.86 0 1.46.55 1.46 1.33s-.6 1.31-1.46 1.31-1.42-.54-1.42-1.31.6-1.33 1.42-1.33zm-1.06 4.43h2.16v10.32h-2.16V28.62zm6.54 1.77h-1.71v-1.7h1.71v-1.03c0-2.01.97-2.91 3.39-2.91.49 0 1.05.05 1.31.08v1.62l-.94-.04c-1.14 0-1.63.33-1.63 1.43v.85h2.35v1.7h-2.32v8.55h-2.16v-8.55h0zm8.02 0h-1.71v-1.7h1.71v-1.03c0-2.01.97-2.91 3.39-2.91.49 0 1.05.05 1.31.08v1.62l-.94-.04c-1.14 0-1.63.33-1.63 1.43v.85h2.35v1.7h-2.32v8.55h-2.16v-8.55h0z" transform="translate(-200.865 -33.085)" fill="#0a79c4"/></g><path d="M62.75 52.66l6.03-3.11v.9L63.7 53v.03l5.08 2.55v.9l-6.03-3.11v-.7h0zm11.7-2.49v2.54h2.99v-2.54h1.13v6.29h-1.13v-2.85h-2.99v2.85h-1.13v-6.29h1.13zm9.48 6.29l-.09-.79h-.04c-.35.49-1.03.94-1.92.94-1.27 0-1.92-.9-1.92-1.81 0-1.52 1.35-2.35 3.78-2.34v-.13c0-.52-.14-1.46-1.43-1.46-.58 0-1.2.18-1.64.47l-.26-.75c.52-.34 1.27-.56 2.07-.56 1.92 0 2.39 1.31 2.39 2.57v2.35c0 .55.03 1.08.1 1.51h-1.04zm-.17-3.21c-1.25-.03-2.67.19-2.67 1.42 0 .74.49 1.09 1.08 1.09.82 0 1.34-.52 1.52-1.05.04-.12.06-.24.06-.36v-1.09h.01zm3.48-3.09l2.08 2.74h.23v-2.74h1.09v2.74h.22l2.08-2.74h1.31l-2.48 2.86c.95.1 1.51.66 1.89 1.66l.69 1.77h-1.14c-.21-.38-.39-.9-.57-1.44-.39-1.03-.98-1.34-1.79-1.34h-.19v2.78h-1.09v-2.78h-.21c-.88 0-1.42.33-1.81 1.35l-.6 1.43h-1.1c.26-.51.47-1.17.69-1.75.39-1.01.95-1.57 1.9-1.68l-2.5-2.86h1.3zm8.2 0h1.4l1.14 3.17.57 1.73h.03l.74-2.16 1.01-2.74h1.42l.44 6.29h-1.09l-.14-3-.12-2.25h-.04l-.69 2.04-1.21 3.17h-.83l-1.12-3.11-.62-2.09h-.05l-.1 2.26-.16 2.98h-1.05l.47-6.29h0zm9.29 0v2.65l-.06 2.52h.04l1.01-1.92 1.96-3.25h1.34v6.29h-1.09v-2.67l.08-2.57h-.04l-1.04 1.95-1.96 3.29h-1.31v-6.29h1.07zm13.39 6.06c-.3.16-.96.36-1.81.36-1.9 0-3.13-1.29-3.13-3.21s1.33-3.34 3.38-3.34c.68 0 1.27.17 1.59.33l-.26.88c-.27-.16-.7-.3-1.33-.3-1.44 0-2.22 1.07-2.22 2.38 0 1.46.94 2.35 2.18 2.35.65 0 1.08-.17 1.4-.31l.19.86h.01zm2.43-6.06v2.65h1.08c.19-1.66 1.29-2.79 2.79-2.79 1.64 0 2.76 1.3 2.76 3.24 0 2.04-1.25 3.34-2.83 3.34s-2.61-1.12-2.74-2.91h-1.05v2.77h-1.12v-6.29h1.11zm5.49 3.11c0-1.18-.53-2.4-1.65-2.4s-1.69 1.2-1.69 2.47.56 2.4 1.66 2.4 1.68-1.27 1.68-2.47zm7.37-3.12v5.43h.65l-.06 2.86h-.9l-.05-2h-4.35l-.05 2h-.9l-.05-2.85h.53c.27-.42.48-.84.62-1.3.25-.78.36-1.62.36-2.51v-1.64h4.2zm-3.19 1.92c0 .83-.12 1.64-.33 2.34-.13.43-.31.82-.51 1.17h2.9v-4.55h-2.07v1.04h.01zm8.68 4.38l-.09-.79h-.04c-.35.49-1.03.94-1.92.94-1.27 0-1.92-.9-1.92-1.81 0-1.52 1.35-2.35 3.78-2.34v-.13c0-.52-.14-1.46-1.43-1.46-.58 0-1.2.18-1.64.47l-.26-.75c.52-.34 1.27-.56 2.07-.56 1.92 0 2.39 1.31 2.39 2.57v2.35c0 .55.03 1.08.1 1.51h-1.04zm-.17-3.21c-1.25-.03-2.67.19-2.67 1.42 0 .74.49 1.09 1.08 1.09.82 0 1.34-.52 1.52-1.05.04-.12.06-.24.06-.36v-1.09h0zm2.21 4.8c.29-.77.64-2.16.78-3.11l1.27-.13c-.3 1.1-.87 2.55-1.24 3.16l-.82.08h.01zm7.23-7.89v2.07c0 .79.3 1.34 1.3 1.34.49 0 1-.18 1.35-.44v-2.96h1.13v6.29h-1.13v-2.52h-.03c-.43.29-1.1.48-1.7.48-1.2 0-2.07-.61-2.07-2.05v-2.2h1.15zm9.87-.01v.91h-1.96v5.38h-1.13v-5.38h-1.96v-.91h5.05zm6.53 3.09c0 2.33-1.61 3.34-3.13 3.34-1.7 0-3.02-1.25-3.02-3.24 0-2.11 1.38-3.34 3.12-3.34s3.03 1.31 3.03 3.24h0zm-4.99.06c0 1.38.79 2.42 1.91 2.42s1.91-1.03 1.91-2.44c0-1.07-.53-2.42-1.89-2.42s-1.94 1.25-1.94 2.44h0zM173.53 48c-.32.12-.9.22-1.31.29-1.01.16-1.75.49-2.24 1.18-.4.57-.64 1.42-.69 2.08h.04c.4-.91 1.29-1.42 2.18-1.42 1.55 0 2.68 1.11 2.68 3.11s-1.07 3.33-2.91 3.33c-2.21 0-2.94-2.12-2.94-4.21 0-1.43.3-2.6.98-3.48.61-.87 1.48-1.27 2.7-1.48.51-.08 1.13-.18 1.56-.34l-.05.95h0zm-2.25 2.97c-.68 0-1.16.35-1.42.86-.21.38-.31.83-.31 1.34 0 1.04.51 2.54 1.76 2.54s1.73-1.22 1.73-2.38c0-1.03-.4-2.35-1.76-2.35h0zm5.46-.86v2.15c.25-.05.61-.08 1.03-.08 1.35 0 2.72.56 2.72 2.11 0 .66-.25 1.12-.65 1.46-.69.58-1.7.73-2.53.73-.64 0-1.22-.04-1.69-.09v-6.27h1.12zm0 5.49a6.98 6.98 0 0 0 .79.05c.87 0 1.82-.36 1.82-1.34s-.91-1.33-1.77-1.33c-.32 0-.61.03-.84.06v2.55h0zm5.67-5.49v6.29h-1.13v-6.29h1.13zm9.8 0v6.29h-1.14v-5.38h-2.92v5.38h-1.13v-6.29h5.19zm7.55 3.09c0 2.33-1.61 3.34-3.13 3.34-1.7 0-3.02-1.25-3.02-3.24 0-2.11 1.38-3.34 3.12-3.34s3.03 1.31 3.03 3.24h0zm-4.99.06c0 1.38.79 2.42 1.91 2.42s1.91-1.03 1.91-2.44c0-1.07-.53-2.42-1.88-2.42s-1.94 1.25-1.94 2.44zm11.22-3.16v5.43h.65l-.06 2.86h-.9l-.05-2h-4.36l-.05 2h-.9l-.05-2.85h.53c.27-.42.48-.84.62-1.3.25-.78.36-1.62.36-2.51v-1.64h4.21zm-3.19 1.92c0 .83-.12 1.64-.33 2.34-.13.43-.31.82-.51 1.17h2.9v-4.55h-2.07v1.04h.01zm5.79 1.44c.03 1.55 1.01 2.18 2.16 2.18.82 0 1.31-.14 1.74-.33l.19.82c-.4.18-1.09.39-2.09.39-1.94 0-3.09-1.27-3.09-3.17s1.12-3.39 2.95-3.39c2.05 0 2.6 1.81 2.6 2.96 0 .23-.03.42-.04.53h-4.42zm3.35-.81c0-.73-.3-1.86-1.59-1.86-1.16 0-1.66 1.07-1.75 1.86h3.34zm7.3-2.54v6.29h-1.13V51h-2.16v1.64c0 1.77-.17 2.95-.99 3.48-.31.25-.66.39-1.25.39l-.12-.9c.22-.04.47-.13.62-.26.58-.43.65-1.31.65-2.72v-2.54h4.37v.02zm2.93 0v2.65l-.06 2.52h.04l1.01-1.92 1.96-3.25h1.34v6.29h-1.09v-2.67l.08-2.57h-.04l-1.04 1.95-1.96 3.29h-1.31v-6.29h1.07zm10.36 0v.91h-1.96v5.38h-1.13v-5.38h-1.96v-.91h5.05zm2.11 0v2.13c.26-.05.7-.06 1.04-.06 1.42 0 2.91.44 2.91 2.12 0 .65-.26 1.1-.66 1.44-.69.58-1.81.73-2.73.73-.64 0-1.22-.04-1.69-.09v-6.27h1.13zm0 5.5c.22.03.47.05.84.05.86 0 1.96-.29 1.96-1.34s-1.14-1.33-1.99-1.33c-.3 0-.56.03-.82.06v2.55h.01zm9.85.57c-.3.16-.96.36-1.81.36-1.9 0-3.13-1.29-3.13-3.21s1.33-3.34 3.38-3.34c.68 0 1.27.17 1.59.33l-.26.88c-.27-.16-.7-.3-1.33-.3-1.44 0-2.22 1.07-2.22 2.38 0 1.46.94 2.35 2.18 2.35.65 0 1.08-.17 1.4-.31l.19.86h.01zm6.04.23h-1.13v-2.64h-.85c-.48 0-.81.13-1.05.35-.47.38-.64 1.16-.88 1.77l-.26.52h-1.22c.14-.21.27-.44.39-.71.27-.61.43-1.43.99-1.9.19-.17.43-.31.72-.36v-.04c-.82-.09-1.66-.6-1.66-1.56 0-.65.35-1.09.83-1.37.52-.3 1.29-.43 2.11-.43.68 0 1.36.05 2.03.13v6.24h-.02zm-1.13-5.54c-.31-.04-.63-.06-.95-.06-.78 0-1.7.22-1.7 1.09 0 .81 1 1.09 1.68 1.09h.98v-2.12h0zm6.8-.75v2.65l-.06 2.52h.04l1.01-1.92 1.96-3.25h1.34v6.29h-1.09v-2.67l.08-2.57h-.04l-1.04 1.95-1.96 3.29h-1.31v-6.29h1.07zm10.92 0v6.29h-1.13v-5.4h-2.16v1.64c0 1.77-.17 2.95-.99 3.48-.31.25-.66.39-1.25.39l-.12-.9c.22-.04.47-.13.62-.26.58-.43.65-1.31.65-2.72V50.1h4.37v.02zm2.93 0v2.65l-.06 2.52h.04l1.01-1.92 1.96-3.25h1.34v6.29h-1.09v-2.67l.08-2.57h-.04l-1.04 1.95-1.96 3.29h-1.31v-6.29h1.07zm10.01 0v2.54h2.99v-2.54h1.13v6.29h-1.13v-2.85h-2.99v2.85h-1.13v-6.29h1.13zm9.48 6.29l-.09-.79h-.04c-.35.49-1.03.94-1.92.94-1.27 0-1.92-.9-1.92-1.81 0-1.52 1.35-2.35 3.78-2.34v-.13c0-.52-.14-1.46-1.43-1.46-.58 0-1.2.18-1.64.47l-.26-.75c.52-.34 1.27-.56 2.07-.56 1.92 0 2.39 1.31 2.39 2.57v2.35c0 .55.03 1.08.1 1.51h-1.04zm-.17-3.21c-1.25-.03-2.67.19-2.67 1.42 0 .74.49 1.09 1.08 1.09.82 0 1.34-.52 1.52-1.05.04-.12.06-.24.06-.36v-1.09h.01zm8.12-3.09v6.29h-1.14v-5.38h-2.92v5.38h-1.13v-6.29h5.19zm2.91 0v2.65l-.06 2.52h.04l1.01-1.92 1.96-3.25h1.34v6.29h-1.09v-2.67l.08-2.57h-.04l-1.04 1.95-1.96 3.29h-1.31v-6.29h1.07zm10.63 6.06c-.3.16-.96.36-1.81.36-1.9 0-3.13-1.29-3.13-3.21s1.33-3.34 3.38-3.34c.68 0 1.27.17 1.59.33l-.26.88c-.27-.16-.7-.3-1.33-.3-1.44 0-2.22 1.07-2.22 2.38 0 1.46.94 2.35 2.18 2.35.65 0 1.08-.17 1.4-.31l.19.86h.01zm4.86.23l-.09-.79h-.04c-.35.49-1.03.94-1.92.94-1.27 0-1.92-.9-1.92-1.81 0-1.52 1.35-2.35 3.78-2.34v-.13c0-.52-.14-1.46-1.43-1.46-.58 0-1.2.18-1.64.47l-.26-.75c.52-.34 1.27-.56 2.07-.56 1.92 0 2.39 1.31 2.39 2.57v2.35c0 .55.03 1.08.1 1.51h-1.04zm-.17-3.21c-1.25-.03-2.67.19-2.67 1.42 0 .74.49 1.09 1.08 1.09.82 0 1.34-.52 1.52-1.05.04-.12.06-.24.06-.36V53.2h.01zm7.11-3.09v.91h-1.96v5.38h-1.13v-5.38h-1.96v-.91h5.05zm2.11 0v2.13c.26-.05.7-.06 1.04-.06 1.42 0 2.91.44 2.91 2.12 0 .65-.26 1.1-.66 1.44-.69.58-1.81.73-2.73.73-.64 0-1.22-.04-1.69-.09V50.1h1.13zm0 5.5c.22.03.47.05.84.05.86 0 1.96-.29 1.96-1.34s-1.14-1.33-1.99-1.33c-.3 0-.56.03-.82.06v2.55h.01zm14.07-2.29l-6.03 3.09v-.9l5.12-2.55v-.03l-5.12-2.55v-.9l6.03 3.09v.75z"/><g id="I" transform="matrix(1 0 0 1 200.86528 11.24)"><g transform="translate(-200.865 -11.24)" fill="#f40097"><path d="M67.75 8.13h-3.36v7.54h-2.25V6.39H70v9.28h-2.25V8.13z"/><use width="8.3" height="9.59" xlink:href="#A"/><path d="M80.84 18.16v-4.23h.75c.25-.14.43-.36.55-.66s.21-.73.27-1.29l.14-2.16.06-1.71.06-1.71h7.05v7.54h1.34v4.23h-1.97v-2.49H82.8v2.49h-1.96zm6.64-10.03h-2.82l-.04.86-.04.87-.12 1.93c-.05.51-.11.93-.19 1.25s-.19.58-.33.79v.1h3.54v-5.8zm6.41 7.21c-.62-.33-1.1-.81-1.44-1.45s-.51-1.41-.51-2.32v-1.1c0-.92.18-1.69.53-2.32a3.65 3.65 0 0 1 1.45-1.44c.61-.33 1.29-.49 2.04-.49s1.48.17 2.08.52c.6.34 1.07.83 1.41 1.47s.51 1.39.51 2.27v1.07h-5.83v.44c0 .61.17 1.1.52 1.5.35.39.82.59 1.4.59.31 0 .58-.04.82-.14s.43-.21.59-.37c.15-.16.24-.33.27-.52h2.14c-.02.29-.11.6-.27.92a3.09 3.09 0 0 1-.7.91 3.66 3.66 0 0 1-1.16.7c-.47.18-1.03.27-1.68.27-.84 0-1.57-.16-2.19-.49zm3.9-5.2v-.1c0-.42-.08-.79-.23-1.1s-.36-.56-.63-.73-.59-.26-.95-.26-.68.09-.96.26a1.82 1.82 0 0 0-.64.73c-.15.31-.23.68-.23 1.1v.1h3.64zm4.71-3.75h6.77v9.28h-2.25V8.13h-2.53l-.05 1.82-.14 2.48c-.07.72-.2 1.33-.39 1.83s-.47.88-.83 1.14-.86.39-1.47.39c-.22 0-.46-.04-.73-.12v-1.99c.16.05.3.07.41.07.26 0 .46-.09.61-.27s.26-.44.33-.78.12-.76.15-1.25l.06-1.67.07-3.39z"/><use width="8.04" height="9.28" xlink:href="#B"/><use width="7.83" height="9.61" xlink:href="#C"/><path d="M131.09 6.39h2.25v2.94h1.54c1.07 0 1.92.29 2.56.86.63.57.95 1.34.95 2.31s-.32 1.74-.95 2.31-1.49.86-2.56.86h-3.79V6.39zm2.22 4.65v2.9h1.23c.48 0 .87-.13 1.16-.4s.44-.62.44-1.06-.15-.79-.44-1.05-.68-.39-1.16-.39h-1.23z"/><use width="7.83" height="9.61" xlink:href="#C" x="21.28"/><path d="M152.37 6.39h4.38c.84 0 1.53.21 2.05.62s.79.99.79 1.71c0 .37-.07.7-.21.97s-.32.5-.56.66a2.16 2.16 0 0 1-.8.36v.09c.37.03.71.14 1.02.33.31.18.55.44.73.76s.27.71.27 1.15c0 .57-.15 1.05-.44 1.44s-.69.68-1.19.88-1.06.3-1.69.3h-4.37V6.39zm2.2 3.79h1.33c.34 0 .63-.04.86-.14s.4-.22.51-.4c.11-.17.17-.39.17-.66 0-.36-.12-.63-.37-.81s-.57-.27-.95-.27h-1.54v2.27zm0 3.97h1.53c.53 0 .95-.1 1.27-.29s.47-.52.47-.97c0-.41-.14-.73-.43-.95s-.68-.33-1.18-.33h-1.65v2.54z"/><use width="8.3" height="9.59" xlink:href="#A" x="89.54"/><use width="8.04" height="9.28" xlink:href="#B" x="59.95"/><use width="10.28" height="9.28" xlink:href="#D"/><use width="8.36" height="12.48" xlink:href="#E"/><use width="7.69" height="9.58" xlink:href="#F"/><path d="M222.06 13.81a1.03 1.03 0 0 0 .44-.89c0-.38-.15-.68-.45-.88s-.7-.31-1.21-.31h-1.04v-1.51h1.04c.29 0 .54-.05.75-.14a1.06 1.06 0 0 0 .48-.4c.11-.17.17-.37.17-.6a.98.98 0 0 0-.4-.84c-.26-.2-.61-.3-1.03-.3-.34 0-.63.06-.86.18s-.4.29-.52.49a1.55 1.55 0 0 0-.21.67h-2.1c.03-.6.19-1.13.49-1.59s.72-.82 1.26-1.08 1.18-.39 1.92-.39 1.34.11 1.88.33.96.53 1.26.92.45.85.45 1.37c0 .33-.07.63-.21.9s-.33.5-.59.68-.54.3-.88.36v.1a2.59 2.59 0 0 1 1 .35c.29.19.53.44.7.74s.26.65.26 1.05c0 .85-.35 1.53-1.04 2.05s-1.62.78-2.77.78c-.82 0-1.5-.14-2.06-.41s-.99-.64-1.28-1.1-.45-.95-.46-1.49h2.08c.03.24.11.45.24.65.12.19.31.35.55.46.24.12.55.17.92.17.5 0 .89-.11 1.19-.32z"/><use width="8.3" height="9.59" xlink:href="#G"/><path d="M241.34 15.67v-3.65h-.11c-.07.06-.21.13-.41.23-.2.09-.46.18-.76.25s-.64.11-1.01.11c-1.08 0-1.88-.29-2.4-.87s-.77-1.34-.77-2.29V6.39h2.25v2.82c0 .48.13.86.39 1.14s.65.42 1.17.42c.33 0 .62-.03.86-.1s.43-.14.56-.22c.14-.08.22-.13.24-.16V6.41h2.26v9.26h-2.26z"/><use width="7.69" height="9.58" xlink:href="#F" x="37.7"/><use width="8.36" height="12.48" xlink:href="#E" x="57.38"/><use width="8.3" height="9.59" xlink:href="#G" x="39.09"/><path d="M275.3 6.39h4.38c.84 0 1.53.21 2.05.62s.79.99.79 1.71c0 .37-.07.7-.21.97s-.32.5-.56.66a2.16 2.16 0 0 1-.8.36v.09c.37.03.71.14 1.02.33.31.18.55.44.73.76s.27.71.27 1.15c0 .57-.15 1.05-.44 1.44s-.69.68-1.19.88-1.06.3-1.69.3h-4.37V6.39zm2.2 3.79h1.33c.34 0 .63-.04.86-.14.23-.09.4-.22.51-.4a1.22 1.22 0 0 0 .17-.66c0-.36-.12-.63-.37-.81s-.57-.27-.95-.27h-1.54v2.27zm0 3.97h1.53c.53 0 .95-.1 1.27-.29.31-.19.47-.52.47-.97 0-.41-.14-.73-.43-.95s-.68-.33-1.18-.33h-1.65v2.54z"/><use width="7.69" height="9.58" xlink:href="#F" x="76.57"/><path d="M299.92 11.77h-3.45v3.9h-2.25V6.39h2.25v3.64h3.45V6.39h2.25v9.28h-2.25v-3.9z"/><use width="8.04" height="9.28" xlink:href="#B" x="192.9"/><path d="M316.37 15.34c-.62-.33-1.1-.81-1.44-1.45s-.51-1.41-.51-2.32v-1.1c0-.92.18-1.69.53-2.32a3.65 3.65 0 0 1 1.45-1.44c.61-.33 1.29-.49 2.04-.49s1.48.17 2.08.52c.6.34 1.07.83 1.41 1.47s.51 1.39.51 2.27v1.07h-5.83v.44c0 .61.17 1.1.52 1.5s.82.59 1.4.59c.31 0 .58-.04.82-.14.24-.09.44-.21.59-.37s.24-.33.27-.52h2.14c-.02.29-.11.6-.27.92a3.09 3.09 0 0 1-.7.91c-.3.29-.69.52-1.16.7s-1.03.27-1.68.27c-.84 0-1.57-.16-2.19-.49zm3.9-5.2v-.1c0-.42-.08-.79-.23-1.1s-.36-.56-.63-.73-.59-.26-.95-.26-.68.09-.96.26a1.82 1.82 0 0 0-.64.73c-.15.31-.23.68-.23 1.1v.1h3.64z"/><use width="10.28" height="9.28" xlink:href="#D" x="142.32"/><path d="M336.99 13.51c.27-.25.63-.38 1.08-.38s.83.13 1.11.38.41.58.41.98a1.26 1.26 0 0 1-.41.97c-.28.25-.65.38-1.11.38s-.8-.13-1.08-.38a1.26 1.26 0 0 1-.41-.97c0-.4.14-.73.41-.98zm2.34-9.78l-.27 7.87h-1.96l-.26-7.87h2.48z"/></g></g><circle r="30.66" fill="#e14b4b" cx="30.66" cy="30.66"/><path d="M61.32,30.66c0,16.93-13.73,30.66-30.66,30.66-8.55,0-16.27-3.5-21.84-9.14c4.78,3.08,10.47,4.87,16.58,4.87c16.93,0,30.66-13.73,30.66-30.66c0-8.39-3.37-15.99-8.83-21.53c8.48,5.46,14.09,14.97,14.09,25.8Z" fill="#cf3f3f"/><g id="J" transform="translate(30.665 30.659)"><path d="M31.39 39.01c3.68.06 7.56 1.6 10.76 4.77.84.82.88 2.01.13 2.79-.74.76-1.93.8-2.75 0-1.79-1.75-3.87-2.98-6.34-3.45-4.15-.78-7.85.16-11.04 3.01-.44.39-.94.78-1.48.95-.8.26-1.63-.2-2.03-.92-.43-.77-.36-1.71.36-2.3 1.24-1.03 2.49-2.09 3.88-2.9 2.36-1.38 4.98-1.95 8.51-1.96zm-15.55-6.82c1.65 2.09 4.67 2.33 6.59.51 1.97-1.87 2.39-5.07.95-7.4-1.24-2.02-3.44-2.85-5.53-2.1-1.95.71-3.3 2.83-3.32 5.35 0 1.25.42 2.52 1.3 3.63zm29.64-7.52c-1.67-2.11-4.69-2.33-6.63-.47-1.95 1.87-2.34 5.14-.88 7.41 1.55 2.41 4.31 3.06 6.55 1.48 1.59-1.13 2.22-2.78 2.27-4.54-.03-1.53-.44-2.78-1.31-3.87zm-10.02-7.4c-.46-.67-1.12-.84-1.71-.47-.61.39-.74 1.08-.29 1.79l2.45 3.78c.57.85 1.45.87 2.1.09.18-.22.34-.44.52-.66 1.3-1.64 2.89-2.96 4.78-3.84 1.19-.56 2.46-.96 3.69-1.42.76-.29 1.13-.86.95-1.51-.19-.68-.84-1.02-1.64-.8-1.92.53-3.79 1.22-5.44 2.34-1.33.91-2.56 1.97-3.9 3.02l-1.51-2.32zm-11.52 2.16c-2.4-2.62-5.41-4.21-8.79-5.16-.21-.06-.43-.1-.65-.1-.57 0-.94.31-1.11.84-.17.5.06 1.08.55 1.33.32.16.67.27 1.01.37 1.87.57 3.69 1.3 5.19 2.56 1.14.96 2.14 2.09 3.16 3.18.65.69 1.49.8 1.99.08.93-1.35 1.82-2.74 2.68-4.13.36-.58.15-1.23-.38-1.58-.59-.39-1.27-.21-1.75.49-.53.78-1.03 1.57-1.58 2.42-.15-.14-.24-.21-.32-.3z" transform="translate(-30.665 -30.659)" fill="#3f4347"/></g></svg>
