<svg id="eSU2Jr1tiez1" xmlns="http://www.w3.org/2000/svg" xmlns:xlink="http://www.w3.org/1999/xlink" viewBox="0 0 29.76 26.59" shape-rendering="geometricPrecision" text-rendering="geometricPrecision"><path d="M20.39,18.07l1.29,4.46l3.39,3.65c.46-.26.85-.65,1.12-1.12l3.15-5.45c.27-.47.41-1,.41-1.53l-4.84-.94-4.53.94Z" fill="#ea4335"/><path d="M19.56,0.41C19.1,0.15,18.57,0,18.03,0h-6.3c-.55,0-1.08.15-1.53.41l1.36,4.57L14.87,8.5v.02c0,0,3.35-3.56,3.35-3.56l1.35-4.55Z" fill="#188038"/><path d="M9.37,18.07L4.54,16.96L0,18.07c0,.53.14,1.06.41,1.53l3.15,5.46c.27.47.66.86,1.12,1.12l3.34-3.44l1.34-4.67Z" fill="#1967d2"/><path d="M25.01,9.03l-4.33-7.5c-.27-.48-.66-.86-1.12-1.12L14.88,8.52l5.51,9.55h9.37c0-.53-.14-1.06-.41-1.53l-4.33-7.5Z" fill="#fbbc04"/><path d="M20.39,18.07h-11.02L4.69,26.18c.46.26.99.41,1.53.41h17.32c.55,0,1.08-.15,1.53-.41l-4.68-8.11Z" fill="#4285f4"/><path d="M14.88,8.52L10.19,0.41c-.46.26-.85.65-1.12,1.12L0.41,16.54c-.27.47-.41,1-.41,1.53h9.37l5.51-9.55Z" fill="#34a853"/></svg>
