<?xml version="1.0" encoding="UTF-8"?><svg id="a" xmlns="http://www.w3.org/2000/svg" viewBox="0 0 55.54 55.54"><defs><style>.b{fill:#37991b;}.c{fill:#e2b963;}.d{fill:#036118;}.e{fill:#bc813c;}.f{fill:#686868;}</style></defs><path class="d" d="m52.67,53.69c.56,0,1.01-.45,1.01-1.01v-12.99c-1.6-.41-2.78-1.86-2.78-3.59s1.18-3.17,2.78-3.59v-1.04H1.85v1.04c1.6.41,2.78,1.86,2.78,3.59s-1.18,3.17-2.78,3.59v12.99c0,.56.46,1.01,1.01,1.01"/><path d="m55.35,53.69c.12-.32.19-.66.19-1.01v-14.72h-.93c-1.02,0-1.85-.83-1.85-1.85s.83-1.85,1.85-1.85h.93v-9.26h-4.63v1.85H4.63v-1.85H0v9.26h.93c.58,0,1.1.27,1.43.68v2.34c-.34.42-.86.68-1.43.68H0v14.72C0,54.25,1.29,55.54,2.87,55.54h49.81c1.22,0,2.27-.77,2.68-1.85Zm-10,0H2.87c-.18,0-.36-.05-.51-.14v-14.04c1.33-.56,2.27-1.88,2.27-3.41s-.94-2.85-2.27-3.41v-1.22h51.33v1.04c-1.6.41-2.78,1.86-2.78,3.59s1.18,3.17,2.78,3.59v12.99c0,.56-.45,1.01-1.01,1.01h-7.32Z"/><path class="c" d="m51.09,49.13c-.14-.58-.6-1.04-1.18-1.18-.56-.14-1.14.02-1.54.43-.31.31-.47.72-.47,1.15,0,.13.02.26.05.4.14.58.6,1.04,1.18,1.18.56.14,1.14-.02,1.54-.43.4-.4.56-.98.43-1.54Zm-44.68-1.18c-.56-.14-1.14.02-1.54.43-.31.31-.47.72-.47,1.15,0,.13.02.26.05.4.14.58.6,1.04,1.18,1.18.56.14,1.14-.02,1.54-.43.4-.4.56-.98.43-1.54-.14-.58-.6-1.04-1.18-1.18Z"/><polygon class="b" points="53.69 29.62 1.85 29.62 1.85 26.84 2.78 26.84 2.78 28.69 52.76 28.69 52.76 26.84 53.69 26.84 53.69 29.62"/><g><path d="m48.13,42.58h1.85v-1.85h-1.85v-.93h1.85v-1.85h-1.85v-.93h1.85v-1.85h-1.85v-1.85h-7.4v1.85h-1.85v1.85h1.85v.93h-1.85v1.85h1.85v.93h-1.85v1.85h1.85v1.85h7.4v-1.85Zm-5.55,0v-7.4h3.7v7.4h-3.7Zm-27.77,0h1.85v-1.85h-1.85v-.93h1.85v-1.85h-1.85v-.93h1.85v-1.85h-1.85v-1.85h-7.4v1.85h-1.85v1.85h1.85v.93h-1.85v1.85h1.85v.93h-1.85v1.85h1.85v1.85h7.4v-1.85Zm-5.55,0v-7.4h3.7v7.4h-3.7Zm22.22,0h1.85v-1.85h-1.85v-.93h1.85v-1.85h-1.85v-.93h1.85v-1.85h-1.85v-1.85h-7.4v1.85h-1.85v1.85h1.85v.93h-1.85v1.85h1.85v.93h-1.85v1.85h1.85v1.85h7.4v-1.85Zm-5.55,0v-7.4h3.7v7.4h-3.7Z"/><path class="f" d="m12.96,42.58h-3.7v-7.4h3.7v7.4Zm16.66-7.4h-3.7v7.4h3.7v-7.4Zm16.66,0h-3.7v7.4h3.7v-7.4Z"/></g><path class="e" d="m17.59,49.06v4.63h-1.85v-4.63h1.85Zm.93,0v4.63h1.85v-4.63h-1.85Zm-5.55,0v4.63h1.85v-4.63h-1.85Zm8.33,0v4.63h1.85v-4.63h-1.85Zm-11.11,0v4.63h1.85v-4.63h-1.85Zm27.77,0v4.63h1.85v-4.63h-1.85Zm2.78,0v4.63h1.85v-4.63h-1.85Zm-16.66,0v4.63h1.85v-4.63h-1.85Zm19.44,0v4.63h1.85v-4.63h-1.85Zm-13.88,0v4.63h1.85v-4.63h-1.85Zm-2.78,0v4.63h1.85v-4.63h-1.85Zm5.55,0v4.63h1.85v-4.63h-1.85Zm2.78,0v4.63h1.85v-4.63h-1.85Z"/></svg>
