<?xml version="1.0" encoding="UTF-8"?>
<svg id="a" data-name="Capa 1" xmlns="http://www.w3.org/2000/svg" viewBox="0 0 30.55 30.55">
  <defs>
    <style>
      .b {
        fill: #37991b;
      }

      .c {
        fill: #e2b963;
      }

      .d {
        fill: #036118;
      }

      .e {
        fill: #bc813c;
      }

      .f {
        fill: #686868;
      }
    </style>
  </defs>
  <path class="d" d="m22.66,1.58c0-.31-.25-.56-.56-.56h-7.14c-.23.88-1.02,1.53-1.97,1.53s-1.75-.65-1.97-1.53h-.57v28.51h.57c.23-.88,1.02-1.53,1.97-1.53s1.75.65,1.97,1.53h7.14c.31,0,.56-.25.56-.56"/>
  <path d="m22.66.1C22.48.04,22.29,0,22.1,0h-8.1v.51c0,.56-.46,1.02-1.02,1.02s-1.02-.46-1.02-1.02V0h-5.09v2.55h1.02v25.46h-1.02v2.55h5.09v-.51c0-.32.15-.6.38-.79h1.29c.23.19.38.47.38.79v.51h8.1c.87,0,1.58-.71,1.58-1.58V1.58c0-.67-.42-1.25-1.02-1.47Zm0,5.5v23.37c0,.1-.03.2-.07.28h-7.72c-.31-.73-1.03-1.25-1.88-1.25s-1.57.52-1.88,1.25h-.67V1.02h.57c.23.88,1.02,1.53,1.97,1.53s1.75-.65,1.97-1.53h7.14c.31,0,.56.25.56.56v4.02Z"/>
  <path class="c" d="m20.15,2.44c-.32.08-.57.33-.65.65-.07.31.01.63.23.85.17.17.4.26.63.26.07,0,.15,0,.22-.03.32-.08.57-.33.65-.65.07-.31-.01-.63-.23-.85-.22-.22-.54-.31-.85-.23Zm-.65,24.57c-.07.31.01.63.23.85.17.17.4.26.63.26.07,0,.15,0,.22-.03.32-.08.57-.33.65-.65.07-.31-.01-.63-.23-.85-.22-.22-.54-.31-.85-.23-.32.08-.57.33-.65.65Z"/>
  <polygon class="b" points="9.42 1.02 9.42 29.53 7.89 29.53 7.89 29.02 8.91 29.02 8.91 1.53 7.89 1.53 7.89 1.02 9.42 1.02"/>
  <g>
    <path d="m16.55,4.07v-1.02h-1.02v1.02h-.51v-1.02h-1.02v1.02h-.51v-1.02h-1.02v1.02h-1.02v4.07h1.02v1.02h1.02v-1.02h.51v1.02h1.02v-1.02h.51v1.02h1.02v-1.02h1.02v-4.07h-1.02Zm0,3.05h-4.07v-2.04h4.07v2.04Zm0,15.27v-1.02h-1.02v1.02h-.51v-1.02h-1.02v1.02h-.51v-1.02h-1.02v1.02h-1.02v4.07h1.02v1.02h1.02v-1.02h.51v1.02h1.02v-1.02h.51v1.02h1.02v-1.02h1.02v-4.07h-1.02Zm0,3.05h-4.07v-2.04h4.07v2.04Zm0-12.22v-1.02h-1.02v1.02h-.51v-1.02h-1.02v1.02h-.51v-1.02h-1.02v1.02h-1.02v4.07h1.02v1.02h1.02v-1.02h.51v1.02h1.02v-1.02h.51v1.02h1.02v-1.02h1.02v-4.07h-1.02Zm0,3.05h-4.07v-2.04h4.07v2.04Z"/>
    <path class="f" d="m16.55,23.42v2.04h-4.07v-2.04h4.07Zm-4.07-9.16v2.04h4.07v-2.04h-4.07Zm0-9.16v2.04h4.07v-2.04h-4.07Z"/>
  </g>
  <path class="e" d="m20.11,20.87h2.55v1.02h-2.55v-1.02Zm0-.51h2.55v-1.02h-2.55v1.02Zm0,3.05h2.55v-1.02h-2.55v1.02Zm0-4.58h2.55v-1.02h-2.55v1.02Zm0,6.11h2.55v-1.02h-2.55v1.02Zm0-15.27h2.55v-1.02h-2.55v1.02Zm0-1.53h2.55v-1.02h-2.55v1.02Zm0,9.16h2.55v-1.02h-2.55v1.02Zm0-10.69h2.55v-1.02h-2.55v1.02Zm0,7.64h2.55v-1.02h-2.55v1.02Zm0,1.53h2.55v-1.02h-2.55v1.02Zm0-3.05h2.55v-1.02h-2.55v1.02Zm0-1.53h2.55v-1.02h-2.55v1.02Z"/>
</svg>