<?xml version="1.0" encoding="UTF-8"?><svg id="a" xmlns="http://www.w3.org/2000/svg" viewBox="0 0 885.07 24.2">
<path fill="url(#pattern)" d="m15.15,1.3l-5.4,12.19c-.66,1.49-1.27,2.57-1.83,3.24s-1.2,1.16-1.93,1.47-1.62.47-2.65.47c-.91,0-1.75-.12-2.52-.35v-2.52c.77.3,1.57.46,2.4.46.71,0,1.31-.17,1.79-.52s.92-.97,1.31-1.88L0,1.3h3.02l4.18,8.59c.38.81.61,1.36.69,1.63h.12c.05-.2.16-.53.35-.97L12.22,1.3h2.93Zm7.2,17.37c-1.96,0-3.45-.57-4.47-1.72s-1.53-2.79-1.53-4.93.53-3.85,1.6-5.03,2.61-1.76,4.62-1.76c1.37,0,2.6.25,3.69.76l-.83,2.21c-1.16-.45-2.12-.68-2.88-.68-2.24,0-3.36,1.49-3.36,4.46,0,1.45.28,2.54.84,3.28s1.38,1.1,2.46,1.1c1.23,0,2.39-.3,3.48-.91v2.4c-.49.29-1.02.5-1.58.62s-1.24.19-2.03.19Zm16.39-13.19v2.16h-4.22v10.8h-2.77V7.63h-4.22v-2.16h11.2Zm10.61,12.96l-.55-1.8h-.09c-.62.79-1.25,1.33-1.89,1.61s-1.45.43-2.44.43c-1.27,0-2.27-.34-2.98-1.03s-1.07-1.66-1.07-2.92c0-1.34.5-2.34,1.49-3.02s2.5-1.05,4.54-1.11l2.24-.07v-.69c0-.83-.19-1.45-.58-1.86s-.99-.62-1.8-.62c-.66,0-1.3.1-1.91.29s-1.2.43-1.76.69l-.89-1.97c.7-.37,1.47-.65,2.31-.84s1.62-.29,2.37-.29c1.65,0,2.89.36,3.73,1.08s1.26,1.85,1.26,3.39v8.73h-1.97Zm-4.1-1.88c1,0,1.8-.28,2.41-.84s.91-1.34.91-2.35v-1.12l-1.66.07c-1.3.05-2.24.26-2.83.65s-.88.98-.88,1.78c0,.58.17,1.03.52,1.34s.86.47,1.55.47Zm12.67-11.09v5.2h6.11v-5.2h2.75v12.96h-2.75v-5.59h-6.11v5.59h-2.75V5.47h2.75Zm24.29,6.46c0,2.12-.54,3.77-1.63,4.96s-2.6,1.78-4.54,1.78c-1.21,0-2.28-.27-3.21-.82s-1.64-1.33-2.14-2.36-.75-2.21-.75-3.56c0-2.1.54-3.74,1.62-4.92s2.6-1.77,4.56-1.77,3.36.6,4.45,1.81,1.64,2.83,1.64,4.88Zm-9.43,0c0,2.99,1.11,4.49,3.32,4.49s3.28-1.5,3.28-4.49-1.1-4.44-3.3-4.44c-1.16,0-1.99.38-2.51,1.15-.52.77-.78,1.86-.78,3.29Zm23.85-3.14c0,1.53-.89,2.46-2.68,2.78v.09c1,.12,1.77.43,2.3.95s.8,1.18.8,2c0,1.23-.47,2.17-1.4,2.83s-2.29.99-4.07.99h-6.19V5.47h6.16c3.39,0,5.09,1.11,5.09,3.32Zm-2.75.23c0-.52-.2-.89-.6-1.12s-1-.35-1.8-.35h-3.34v3.12h2.93c.92,0,1.62-.12,2.1-.36s.71-.67.71-1.29Zm.34,5.43c0-.62-.24-1.07-.73-1.33s-1.21-.39-2.18-.39h-3.18v3.67h3.25c1.89,0,2.84-.65,2.84-1.95Zm13.7-8.98h3.02l-5.36,6.25,5.81,6.71h-3.16l-5.6-6.57v6.57h-2.75V5.47h2.75v6.29l5.29-6.29Zm13.72,12.96l-.55-1.8h-.09c-.62.79-1.25,1.33-1.89,1.61s-1.45.43-2.44.43c-1.27,0-2.27-.34-2.98-1.03s-1.07-1.66-1.07-2.92c0-1.34.5-2.34,1.49-3.02s2.5-1.05,4.54-1.11l2.24-.07v-.69c0-.83-.19-1.45-.58-1.86s-.99-.62-1.8-.62c-.66,0-1.3.1-1.91.29s-1.2.43-1.76.69l-.89-1.97c.7-.37,1.47-.65,2.31-.84s1.62-.29,2.37-.29c1.65,0,2.89.36,3.73,1.08s1.26,1.85,1.26,3.39v8.73h-1.97Zm-4.1-1.88c1,0,1.8-.28,2.41-.84s.91-1.34.91-2.35v-1.12l-1.66.07c-1.3.05-2.24.26-2.83.65s-.88.98-.88,1.78c0,.58.17,1.03.52,1.34s.86.47,1.55.47Zm19.01-5.91c1.26,0,2.18-.14,2.78-.42s.89-.71.89-1.28c0-1.05-.94-1.58-2.81-1.58-1.25,0-2.53.28-3.83.84l-.89-2.05c1.51-.62,3.17-.93,4.99-.93,1.61,0,2.86.29,3.75.88s1.34,1.44,1.34,2.54c0,1.45-.83,2.41-2.5,2.86v.09c1.04.28,1.78.68,2.23,1.21s.67,1.17.67,1.95c0,1.19-.52,2.13-1.56,2.84s-2.5,1.06-4.37,1.06c-2.04,0-3.6-.27-4.68-.81v-2.38c1.43.67,2.91,1.01,4.44,1.01,1.1,0,1.95-.15,2.55-.46s.9-.78.9-1.41-.3-1.12-.9-1.43-1.53-.46-2.79-.46h-1.58v-2.07h1.37Zm17.71,7.78l-.55-1.8h-.09c-.62.79-1.25,1.33-1.89,1.61s-1.45.43-2.44.43c-1.27,0-2.27-.34-2.98-1.03s-1.07-1.66-1.07-2.92c0-1.34.5-2.34,1.49-3.02s2.5-1.05,4.54-1.11l2.24-.07v-.69c0-.83-.19-1.45-.58-1.86s-.99-.62-1.8-.62c-.66,0-1.3.1-1.91.29s-1.2.43-1.76.69l-.89-1.97c.7-.37,1.47-.65,2.31-.84s1.62-.29,2.37-.29c1.65,0,2.89.36,3.73,1.08s1.26,1.85,1.26,3.39v8.73h-1.97Zm-4.1-1.88c1,0,1.8-.28,2.41-.84s.91-1.34.91-2.35v-1.12l-1.66.07c-1.3.05-2.24.26-2.83.65s-.88.98-.88,1.78c0,.58.17,1.03.52,1.34s.86.47,1.55.47Zm21.16-7.77c0,1.53-.89,2.46-2.68,2.78v.09c1,.12,1.77.43,2.3.95s.8,1.18.8,2c0,1.23-.47,2.17-1.4,2.83s-2.29.99-4.07.99h-6.19V5.47h6.16c3.39,0,5.09,1.11,5.09,3.32Zm-2.75.23c0-.52-.2-.89-.6-1.12s-1-.35-1.8-.35h-3.34v3.12h2.93c.92,0,1.62-.12,2.1-.36s.71-.67.71-1.29Zm.34,5.43c0-.62-.24-1.07-.73-1.33s-1.21-.39-2.18-.39h-3.18v3.67h3.25c1.89,0,2.84-.65,2.84-1.95Zm8.3-8.98v6.64c0,.77-.06,1.91-.19,3.41l6.5-10.05h3.36v12.96h-2.65v-6.53c0-.36.02-.94.06-1.75s.08-1.39.11-1.76l-6.48,10.03h-3.36V5.47h2.64Zm18.83,13.19c-1.96,0-3.45-.57-4.47-1.72s-1.53-2.79-1.53-4.93.53-3.85,1.6-5.03,2.61-1.76,4.62-1.76c1.37,0,2.6.25,3.69.76l-.83,2.21c-1.16-.45-2.12-.68-2.88-.68-2.24,0-3.36,1.49-3.36,4.46,0,1.45.28,2.54.84,3.28s1.38,1.1,2.46,1.1c1.23,0,2.39-.3,3.48-.91v2.4c-.49.29-1.02.5-1.58.62s-1.24.19-2.03.19Zm9.29-13.19v6.64c0,.77-.06,1.91-.19,3.41l6.5-10.05h3.36v12.96h-2.65v-6.53c0-.36.02-.94.06-1.75s.08-1.39.11-1.76l-6.48,10.03h-3.36V5.47h2.64Zm21.05,10.32l.15-.56c.32-1.16.6-2.06.83-2.68l2.91-7.08h3.67v12.96h-2.54V7.97l-.21.7c-.35,1.26-.65,2.18-.89,2.78l-2.84,6.98h-2.09l-2.84-7.03c-.39-1.02-.75-2.16-1.08-3.43v10.46h-2.52V5.47h3.64l2.81,6.87c.25.63.58,1.79.98,3.46Zm22.99-3.87c0,2.12-.54,3.77-1.63,4.96s-2.6,1.78-4.54,1.78c-1.21,0-2.28-.27-3.21-.82s-1.64-1.33-2.14-2.36-.75-2.21-.75-3.56c0-2.1.54-3.74,1.62-4.92s2.6-1.77,4.56-1.77,3.36.6,4.45,1.81,1.64,2.83,1.64,4.88Zm-9.43,0c0,2.99,1.11,4.49,3.32,4.49s3.28-1.5,3.28-4.49-1.1-4.44-3.3-4.44c-1.16,0-1.99.38-2.51,1.15-.52.77-.78,1.86-.78,3.29Zm17.82,6.74c-1.96,0-3.45-.57-4.47-1.72s-1.53-2.79-1.53-4.93.53-3.85,1.6-5.03,2.61-1.76,4.62-1.76c1.37,0,2.6.25,3.69.76l-.83,2.21c-1.16-.45-2.12-.68-2.88-.68-2.24,0-3.36,1.49-3.36,4.46,0,1.45.28,2.54.84,3.28s1.38,1.1,2.46,1.1c1.23,0,2.39-.3,3.48-.91v2.4c-.49.29-1.02.5-1.58.62s-1.24.19-2.03.19Zm16.39-13.19v2.16h-4.22v10.8h-2.77V7.63h-4.22v-2.16h11.2Zm8.16,13.19c-2.02,0-3.59-.59-4.73-1.76s-1.71-2.79-1.71-4.86.53-3.78,1.58-4.99,2.5-1.82,4.35-1.82c1.71,0,3.06.52,4.05,1.56s1.49,2.47,1.49,4.29v1.49h-8.64c.04,1.26.38,2.22,1.02,2.9s1.54,1.01,2.71,1.01c.77,0,1.48-.07,2.14-.22s1.37-.38,2.13-.72v2.24c-.67.32-1.35.55-2.04.68s-1.47.2-2.36.2Zm-.5-11.34c-.88,0-1.58.28-2.1.83s-.84,1.36-.94,2.43h5.88c-.02-1.07-.27-1.88-.77-2.43s-1.19-.83-2.06-.83Zm11.31-1.85v6.64c0,.77-.06,1.91-.19,3.41l6.5-10.05h3.36v12.96h-2.65v-6.53c0-.36.02-.94.06-1.75s.08-1.39.11-1.76l-6.48,10.03h-3.36V5.47h2.64Zm3.43-1.58c-1.66,0-2.87-.3-3.64-.9s-1.2-1.6-1.28-2.99h2.5c.05.56.15,1,.32,1.31s.41.54.73.67.8.21,1.45.21c.77,0,1.35-.17,1.75-.51s.64-.9.73-1.68h2.54c-.12,1.34-.59,2.33-1.42,2.95s-2.05.94-3.67.94Zm19.04,1.58v6.64c0,.77-.06,1.91-.19,3.41l6.5-10.05h3.36v12.96h-2.65v-6.53c0-.36.02-.94.06-1.75s.08-1.39.11-1.76l-6.48,10.03h-3.36V5.47h2.64Zm27.28,10.32l.15-.56c.32-1.16.6-2.06.83-2.68l2.91-7.08h3.67v12.96h-2.54V7.97l-.21.7c-.35,1.26-.65,2.18-.89,2.78l-2.84,6.98h-2.09l-2.84-7.03c-.39-1.02-.75-2.16-1.08-3.43v10.46h-2.52V5.47h3.64l2.81,6.87c.25.63.58,1.79.98,3.46Zm22.99-3.87c0,2.12-.54,3.77-1.63,4.96s-2.6,1.78-4.54,1.78c-1.21,0-2.28-.27-3.21-.82s-1.64-1.33-2.14-2.36-.75-2.21-.75-3.56c0-2.1.54-3.74,1.62-4.92s2.6-1.77,4.56-1.77,3.36.6,4.45,1.81,1.64,2.83,1.64,4.88Zm-9.43,0c0,2.99,1.11,4.49,3.32,4.49s3.28-1.5,3.28-4.49-1.1-4.44-3.3-4.44c-1.16,0-1.99.38-2.51,1.15-.52.77-.78,1.86-.78,3.29Zm25.03,11.09h-2.57v-4.58h-8.88v4.58h-2.54v-6.71h1.05c.92-1.32,1.65-2.92,2.2-4.79s.87-3.88.97-6.04h7.88v10.83h1.9v6.71Zm-4.61-6.71V7.58h-2.79c-.15,1.61-.46,3.19-.93,4.76s-1.05,2.88-1.73,3.96h5.45Zm12.67,2.37c-2.02,0-3.59-.59-4.73-1.76s-1.71-2.79-1.71-4.86.53-3.78,1.58-4.99,2.5-1.82,4.35-1.82c1.71,0,3.06.52,4.05,1.56s1.49,2.47,1.49,4.29v1.49h-8.64c.04,1.26.38,2.22,1.02,2.9s1.54,1.01,2.71,1.01c.77,0,1.48-.07,2.14-.22s1.37-.38,2.13-.72v2.24c-.67.32-1.35.55-2.04.68s-1.47.2-2.36.2Zm-.5-11.34c-.88,0-1.58.28-2.1.83s-.84,1.36-.94,2.43h5.88c-.02-1.07-.27-1.88-.77-2.43s-1.19-.83-2.06-.83Zm19.32,11.11h-2.78V7.63h-3.57c-.22,2.78-.51,4.95-.88,6.52s-.86,2.7-1.45,3.42-1.37,1.08-2.33,1.08c-.6,0-1.11-.09-1.51-.26v-2.16c.29.11.58.16.87.16.8,0,1.42-.9,1.88-2.69s.81-4.54,1.07-8.23h8.71v12.96Zm9.6.23c-2.02,0-3.59-.59-4.73-1.76s-1.71-2.79-1.71-4.86.53-3.78,1.58-4.99,2.5-1.82,4.35-1.82c1.71,0,3.06.52,4.05,1.56s1.49,2.47,1.49,4.29v1.49h-8.64c.04,1.26.38,2.22,1.02,2.9s1.54,1.01,2.71,1.01c.77,0,1.48-.07,2.14-.22s1.37-.38,2.13-.72v2.24c-.67.32-1.35.55-2.04.68s-1.47.2-2.36.2Zm-.5-11.34c-.88,0-1.58.28-2.1.83s-.84,1.36-.94,2.43h5.88c-.02-1.07-.27-1.88-.77-2.43s-1.19-.83-2.06-.83Zm11.31-1.85v6.64c0,.77-.06,1.91-.19,3.41l6.5-10.05h3.36v12.96h-2.65v-6.53c0-.36.02-.94.06-1.75s.08-1.39.11-1.76l-6.48,10.03h-3.36V5.47h2.64Zm3.43-1.58c-1.66,0-2.87-.3-3.64-.9s-1.2-1.6-1.28-2.99h2.5c.05.56.15,1,.32,1.31s.41.54.73.67.8.21,1.45.21c.77,0,1.35-.17,1.75-.51s.64-.9.73-1.68h2.54c-.12,1.34-.59,2.33-1.42,2.95s-2.05.94-3.67.94Zm19.98-3.64h2.11v23.82h-2.11V.25Zm29.34,18.19h-2.81V3.7h-7.56v14.73h-2.8V1.3h13.17v17.13Zm15.71-6.5c0,2.12-.54,3.77-1.63,4.96s-2.6,1.78-4.54,1.78c-1.21,0-2.28-.27-3.21-.82s-1.64-1.33-2.14-2.36-.75-2.21-.75-3.56c0-2.1.54-3.74,1.62-4.92s2.6-1.77,4.56-1.77,3.36.6,4.45,1.81,1.64,2.83,1.64,4.88Zm-9.43,0c0,2.99,1.11,4.49,3.32,4.49s3.28-1.5,3.28-4.49-1.1-4.44-3.3-4.44c-1.16,0-1.99.38-2.51,1.15-.52.77-.78,1.86-.78,3.29Zm25.03,11.09h-2.57v-4.58h-8.88v4.58h-2.54v-6.71h1.05c.92-1.32,1.65-2.92,2.2-4.79s.87-3.88.97-6.04h7.88v10.83h1.9v6.71Zm-4.61-6.71V7.58h-2.79c-.15,1.61-.46,3.19-.93,4.76s-1.05,2.88-1.73,3.96h5.45Zm15.05-10.83h3.02l-5.36,6.25,5.81,6.71h-3.16l-5.6-6.57v6.57h-2.75V5.47h2.75v6.29l5.29-6.29Zm16.27,12.96h-2.78V7.63h-3.57c-.22,2.78-.51,4.95-.88,6.52s-.86,2.7-1.45,3.42-1.37,1.08-2.33,1.08c-.6,0-1.11-.09-1.51-.26v-2.16c.29.11.58.16.87.16.8,0,1.42-.9,1.88-2.69s.81-4.54,1.07-8.23h8.71v12.96Zm21.25-6.5c0,2.12-.52,3.78-1.55,4.96s-2.48,1.78-4.33,1.78c-1.7,0-3.06-.5-4.06-1.51s-1.59-2.44-1.75-4.32h-2.86v5.59h-2.75V5.47h2.75v5.2h2.88c.2-1.72.8-3.05,1.81-4.01s2.35-1.43,4.03-1.43c1.8,0,3.22.6,4.27,1.81s1.57,2.83,1.57,4.88Zm-8.88,0c0,1.48.24,2.59.71,3.35s1.24,1.14,2.31,1.14,1.83-.38,2.31-1.14.71-1.88.71-3.35-.24-2.57-.71-3.32c-.48-.75-1.25-1.12-2.31-1.12s-1.84.38-2.31,1.12c-.47.75-.71,1.85-.71,3.32Zm14.5-6.46v4.73c0,1.33.69,1.99,2.06,1.99.66,0,1.31-.09,1.95-.28s1.31-.48,2.04-.88v-5.57h2.75v12.96h-2.75v-5.5c-.76.47-1.49.81-2.2,1.04s-1.48.33-2.31.33c-1.35,0-2.41-.35-3.16-1.05s-1.14-1.68-1.14-2.94v-4.85h2.77Zm18.4,13.19c-2.02,0-3.59-.59-4.73-1.76s-1.71-2.79-1.71-4.86.53-3.78,1.58-4.99,2.5-1.82,4.35-1.82c1.71,0,3.06.52,4.05,1.56s1.49,2.47,1.49,4.29v1.49h-8.64c.04,1.26.38,2.22,1.02,2.9s1.54,1.01,2.71,1.01c.77,0,1.48-.07,2.14-.22s1.37-.38,2.13-.72v2.24c-.67.32-1.35.55-2.04.68s-1.47.2-2.36.2Zm-.5-11.34c-.88,0-1.58.28-2.1.83s-.84,1.36-.94,2.43h5.88c-.02-1.07-.27-1.88-.77-2.43s-1.19-.83-2.06-.83Zm11.43-1.85v5.2h6.11v-5.2h2.75v12.96h-2.75v-5.59h-6.11v5.59h-2.75V5.47h2.75Zm15.43,0v6.64c0,.77-.06,1.91-.19,3.41l6.5-10.05h3.36v12.96h-2.65v-6.53c0-.36.02-.94.06-1.75s.08-1.39.11-1.76l-6.48,10.03h-3.36V5.47h2.64Zm19.27,13.19c-2.02,0-3.59-.59-4.73-1.76s-1.71-2.79-1.71-4.86.53-3.78,1.58-4.99,2.5-1.82,4.35-1.82c1.71,0,3.06.52,4.05,1.56s1.49,2.47,1.49,4.29v1.49h-8.64c.04,1.26.38,2.22,1.02,2.9s1.54,1.01,2.71,1.01c.77,0,1.48-.07,2.14-.22s1.37-.38,2.13-.72v2.24c-.67.32-1.35.55-2.04.68s-1.47.2-2.36.2Zm-.5-11.34c-.88,0-1.58.28-2.1.83s-.84,1.36-.94,2.43h5.88c-.02-1.07-.27-1.88-.77-2.43s-1.19-.83-2.06-.83Zm23.29-1.85v2.16h-5.62v10.8h-2.75V5.47h8.38Zm.53,0h3l2.64,7.35c.4,1.05.66,2.03.8,2.95h.09c.07-.43.2-.95.39-1.56s1.18-3.53,2.98-8.74h2.98l-5.54,14.68c-1.01,2.7-2.69,4.04-5.04,4.04-.61,0-1.2-.07-1.78-.2v-2.18c.41.09.89.14,1.42.14,1.33,0,2.26-.77,2.8-2.31l.48-1.22-5.2-12.96Zm23.21,0v2.16h-5.62v10.8h-2.75V5.47h8.38Zm13.15,12.96h-2.78V7.63h-3.57c-.22,2.78-.51,4.95-.88,6.52s-.86,2.7-1.45,3.42-1.37,1.08-2.33,1.08c-.6,0-1.11-.09-1.51-.26v-2.16c.29.11.58.16.87.16.8,0,1.42-.9,1.88-2.69s.81-4.54,1.07-8.23h8.71v12.96Zm15.43-6.5c0,2.12-.54,3.77-1.63,4.96s-2.6,1.78-4.54,1.78c-1.21,0-2.28-.27-3.21-.82s-1.64-1.33-2.14-2.36-.75-2.21-.75-3.56c0-2.1.54-3.74,1.62-4.92s2.6-1.77,4.56-1.77,3.36.6,4.45,1.81,1.64,2.83,1.64,4.88Zm-9.43,0c0,2.99,1.11,4.49,3.32,4.49s3.28-1.5,3.28-4.49-1.1-4.44-3.3-4.44c-1.16,0-1.99.38-2.51,1.15-.52.77-.78,1.86-.78,3.29Zm25.03,11.09h-2.57v-4.58h-8.88v4.58h-2.54v-6.71h1.05c.92-1.32,1.65-2.92,2.2-4.79s.87-3.88.97-6.04h7.88v10.83h1.9v6.71Zm-4.61-6.71V7.58h-2.79c-.15,1.61-.46,3.19-.93,4.76s-1.05,2.88-1.73,3.96h5.45Zm9.64-10.83v6.64c0,.77-.06,1.91-.19,3.41l6.5-10.05h3.36v12.96h-2.65v-6.53c0-.36.02-.94.06-1.75s.08-1.39.11-1.76l-6.48,10.03h-3.36V5.47h2.64Zm18.83,13.19c-1.96,0-3.45-.57-4.47-1.72s-1.53-2.79-1.53-4.93.53-3.85,1.6-5.03,2.61-1.76,4.62-1.76c1.37,0,2.6.25,3.69.76l-.83,2.21c-1.16-.45-2.12-.68-2.88-.68-2.24,0-3.36,1.49-3.36,4.46,0,1.45.28,2.54.84,3.28s1.38,1.1,2.46,1.1c1.23,0,2.39-.3,3.48-.91v2.4c-.49.29-1.02.5-1.58.62s-1.24.19-2.03.19Zm14.7-13.19h3.02l-5.36,6.25,5.81,6.71h-3.16l-5.6-6.57v6.57h-2.75V5.47h2.75v6.29l5.29-6.29Zm13.72,12.96l-.55-1.8h-.09c-.62.79-1.25,1.33-1.89,1.61s-1.45.43-2.44.43c-1.27,0-2.27-.34-2.98-1.03s-1.07-1.66-1.07-2.92c0-1.34.5-2.34,1.49-3.02s2.5-1.05,4.54-1.11l2.24-.07v-.69c0-.83-.19-1.45-.58-1.86s-.99-.62-1.8-.62c-.66,0-1.3.1-1.91.29s-1.2.43-1.76.69l-.89-1.97c.7-.37,1.47-.65,2.31-.84s1.62-.29,2.37-.29c1.65,0,2.89.36,3.73,1.08s1.26,1.85,1.26,3.39v8.73h-1.97Zm-4.1-1.88c1,0,1.8-.28,2.41-.84s.91-1.34.91-2.35v-1.12l-1.66.07c-1.3.05-2.24.26-2.83.65s-.88.98-.88,1.78c0,.58.17,1.03.52,1.34s.86.47,1.55.47ZM789,.25h2.11v23.82h-2.11V.25Zm27.04,5.06c0,1.12-.37,2.03-1.11,2.74s-1.76,1.16-3.06,1.36v.07c1.5.18,2.64.62,3.43,1.33s1.18,1.63,1.18,2.77c0,1.59-.62,2.84-1.87,3.74s-2.97,1.35-5.16,1.35-4.11-.31-5.47-.93v-2.45c.76.36,1.61.64,2.55.83s1.8.29,2.58.29c3.01,0,4.51-.98,4.51-2.95,0-.91-.45-1.6-1.35-2.07s-2.24-.71-4.01-.71h-2.06v-2.25h1.93c3.41,0,5.12-.91,5.12-2.73,0-.73-.29-1.3-.87-1.72s-1.4-.63-2.44-.63c-.83,0-1.62.11-2.37.33s-1.53.59-2.33,1.11l-1.28-1.9c1.76-1.22,3.83-1.83,6.21-1.83,1.81,0,3.25.39,4.3,1.16s1.58,1.8,1.58,3.09Zm11.68,13.12l-.55-1.8h-.09c-.62.79-1.25,1.33-1.89,1.61s-1.45.43-2.44.43c-1.27,0-2.27-.34-2.98-1.03s-1.07-1.66-1.07-2.92c0-1.34.5-2.34,1.49-3.02s2.5-1.05,4.54-1.11l2.24-.07v-.69c0-.83-.19-1.45-.58-1.86s-.99-.62-1.8-.62c-.66,0-1.3.1-1.91.29s-1.2.43-1.76.69l-.89-1.97c.7-.37,1.47-.65,2.31-.84s1.62-.29,2.37-.29c1.65,0,2.89.36,3.73,1.08s1.26,1.85,1.26,3.39v8.73h-1.97Zm-4.1-1.88c1,0,1.8-.28,2.41-.84s.91-1.34.91-2.35v-1.12l-1.66.07c-1.3.05-2.24.26-2.83.65s-.88.98-.88,1.78c0,.58.17,1.03.52,1.34s.86.47,1.55.47Zm21.25-11.09v12.96h-2.77V7.65h-5.81v10.78h-2.75V5.47h11.33Zm1.97,0h3l2.64,7.35c.4,1.05.66,2.03.8,2.95h.09c.07-.43.2-.95.39-1.56s1.18-3.53,2.98-8.74h2.98l-5.54,14.68c-1.01,2.7-2.69,4.04-5.04,4.04-.61,0-1.2-.07-1.78-.2v-2.18c.41.09.89.14,1.42.14,1.33,0,2.26-.77,2.8-2.31l.48-1.22-5.2-12.96Zm20.06,13.19c-1.96,0-3.45-.57-4.47-1.72s-1.53-2.79-1.53-4.93.53-3.85,1.6-5.03,2.61-1.76,4.62-1.76c1.37,0,2.6.25,3.69.76l-.83,2.21c-1.16-.45-2.12-.68-2.88-.68-2.24,0-3.36,1.49-3.36,4.46,0,1.45.28,2.54.84,3.28s1.38,1.1,2.46,1.1c1.23,0,2.39-.3,3.48-.91v2.4c-.49.29-1.02.5-1.58.62s-1.24.19-2.03.19Zm14.7-13.19h3.02l-5.36,6.25,5.81,6.71h-3.16l-5.6-6.57v6.57h-2.75V5.47h2.75v6.29l5.29-6.29Z" isolation="isolate"/>

  <defs>  
    <linearGradient id="gradient" x1="0%" y1="0%" x2="100%" y2="0">
      <stop offset="0%" style="stop-color:#33235b;"/>
      <stop offset="25%" style="stop-color:#D62229;"/>
      <stop offset="50%" style="stop-color:#E97639;"/>
      <stop offset="75%" style="stop-color:#792042;"/>
      <stop offset="100%" style="stop-color:#33235b;"/>
    </linearGradient>
    
    <pattern id="pattern" x="0" y="0" width="300%" height="100%" patternUnits="userSpaceOnUse">
      <rect x="0" y="0" width="150%" height="100%" fill="url(#gradient)">
        <animate attributeType="XML"
                 attributeName="x"
                 from="0" to="150%"
                 dur="7s"
                 repeatCount="indefinite"/>
      </rect>
      <rect x="-150%" y="0" width="150%" height="100%" fill="url(#gradient)">
        <animate attributeType="XML"
                 attributeName="x"
                 from="-150%" to="0"
                 dur="7s"
                 repeatCount="indefinite"/>
      </rect>
    </pattern>

    
  </defs>
</svg>